<svg id="PDESIGN_REDONE" xmlns="http://www.w3.org/2000/svg" viewBox="0 0 14.39 12.33"><defs><style>.cls-1{fill:#ff5331;}</style></defs><title>ext_link_red</title><path class="cls-1" d="M4184.46,6299.84v2.57a2.32,2.32,0,0,1-2.31,2.31h-6.68a2.32,2.32,0,0,1-2.31-2.31v-6.68a2.32,2.32,0,0,1,2.31-2.31h5.65a0.25,0.25,0,0,1,.26.26v0.51a0.25,0.25,0,0,1-.26.26h-5.65a1.29,1.29,0,0,0-1.28,1.28v6.68a1.29,1.29,0,0,0,1.28,1.28h6.68a1.29,1.29,0,0,0,1.28-1.28v-2.57a0.25,0.25,0,0,1,.26-0.26h0.51a0.25,0.25,0,0,1,.26.26h0Zm3.08-6.94V6297a0.51,0.51,0,0,1-.88.36l-1.41-1.41-5.24,5.24a0.25,0.25,0,0,1-.37,0l-0.92-.92a0.25,0.25,0,0,1,0-.37l5.24-5.24-1.41-1.41a0.51,0.51,0,0,1,.36-0.88H4187a0.52,0.52,0,0,1,.51.51h0Z" transform="translate(-4173.15 -6292.39)"/></svg>